<?xml version="1.0" encoding="utf-8"?>
<!-- Generator: Adobe Illustrator 25.0.1, SVG Export Plug-In . SVG Version: 6.00 Build 0)  -->
<svg version="1.0" id="Layer_1" xmlns="http://www.w3.org/2000/svg" xmlns:xlink="http://www.w3.org/1999/xlink" x="0px" y="0px"
	 viewBox="0 0 976 649.5" style="enable-background:new 0 0 976 649.5;" xml:space="preserve">
<style type="text/css">
	.st0{fill:#3A2D7D;}
	.st1{fill:#FFFFFF;}
	.st2{fill:none;}
	.st3{fill:#E66F25;}
	.st4{fill:#3A2E7D;}
	.st5{fill:#EFB41D;}
	.st6{fill:#E22028;}
</style>
<g id="NSE_Logo">
	<g id="Group_11">
		<g id="Group_10">
			<path id="Path_5" class="st0" d="M519.6,348.6l-68.3-108.9h-32.1v170h35.9l-1.9-108.2l67.7,108.2h31.2v-170h-35.9L519.6,348.6z"
				/>
			<path id="Path_6" class="st0" d="M662.5,306.8l-17.2-3.7c-15-3.1-23.1-5.3-26.5-10.9c-1.1-1.8-1.7-3.8-1.6-5.9
				c-0.1-2.2,0.4-4.4,1.6-6.2c5.6-10.6,23.1-11.2,26.5-11.2c16.7-0.4,32.1,8.5,40.2,23.1l1.6,2.5l29.9-22.1l-1.6-2.2
				c-15.6-22.3-41.4-35.2-68.6-34.3c-39.9,0-56.1,20-61.1,28.4c-4.3,7.8-6.6,16.6-6.5,25.6c-0.3,17.2,9.4,33.1,25,40.5
				c7.6,3.7,15.7,6.2,24,7.5l21.2,4.7l3.7,0.9c7.5,1.6,19,4.1,23.4,9.7c1.6,2.4,2.5,5.2,2.5,8.1c0,14-15.6,17.5-17.5,17.8
				c-3.8,0.8-7.7,1-11.5,0.9c-29.6,0-42.1-13.4-48.7-23.4l-1.6-2.2l-30.2,20.9l1.2,2.2c2.3,4.1,5.2,7.8,8.4,11.2
				c10.9,11.6,31.5,25.3,66.1,25.3c28.7,0,46.2-9.7,55.5-17.8c11.4-9.4,17.7-23.6,17.2-38.4c0.7-10.9-3.1-21.5-10.3-29.6
				C696.2,315.2,678.4,310.2,662.5,306.8z"/>
			<path id="Path_7" class="st0" d="M774.4,376.7V338h75.5v-32.1h-75.5v-33.1h82.7v-33.1H738.9v170H863v-33.1H774.4z"/>
		</g>
		<path id="Rectangle_8" class="st1" d="M240.8,268.5l56.2,56.2l-56.2,56.2l-56.2-56.2L240.8,268.5z"/>
		<path id="Rectangle_9" class="st2" d="M184.5,324.8l56.2-56.2l56.2,56.2l-56.2,56.2L184.5,324.8z"/>
		<path id="Path_8" class="st3" d="M331.3,235l-90.4-37.4L150.4,235l90.4,34L331.3,235z"/>
		<path id="Path_9" class="st4" d="M296.5,325.4l34.3-90.4l-90.4,34L296.5,325.4z"/>
		<path id="Path_10" class="st5" d="M240.3,380.6l90.4,34l-34.3-90.1L240.3,380.6z"/>
		<path id="Path_11" class="st5" d="M240.9,268.9l-90.4-34l34.3,90.4L240.9,268.9z"/>
		<path id="Path_12" class="st6" d="M150.4,235c-0.3-0.3-37.4,89.6-37.4,89.6l37.4,90l34.3-89.6L150.4,235z"/>
		<path id="Path_13" class="st5" d="M184.7,324.4l-34.3,90.1l90.4-34L184.7,324.4z"/>
		<path id="Path_14" class="st6" d="M150.4,414.6l90.4,37.4l90.4-37.4l-90.4-34L150.4,414.6z"/>
		<path id="Path_15" class="st3" d="M330.5,235l-34.3,90l34.3,89.6l37.5-89.7L330.5,235z"/>
	</g>
</g>
</svg>
